<?xml version="1.0" standalone="no"?><!DOCTYPE svg PUBLIC "-//W3C//DTD SVG 1.1//EN" "http://www.w3.org/Graphics/SVG/1.1/DTD/svg11.dtd"><svg t="1754446041205" class="icon" viewBox="0 0 1024 1024" version="1.1" xmlns="http://www.w3.org/2000/svg" p-id="10204" xmlns:xlink="http://www.w3.org/1999/xlink" width="32" height="32"><path d="M491.223623 663.499727H196.065191a31.550775 31.550775 0 0 0-31.737466 31.924156 32.110848 32.110848 0 0 0 31.924157 31.924157h294.971741a31.550775 31.550775 0 0 0 31.924156-31.924157 32.48423 32.48423 0 0 0-31.924156-31.924156zM164.327725 842.909754a32.670921 32.670921 0 0 0 32.67092 31.924157h588.263264a31.924157 31.924157 0 0 0 32.670921-32.110848 32.857612 32.857612 0 0 0-32.670921-31.924157H196.998645a31.924157 31.924157 0 0 0-32.67092 32.110848z" p-id="10205"></path><path d="M933.121161 376.929079a32.110848 32.110848 0 0 0-31.924156 30.804011 8.027712 8.027712 0 0 1 0 0.933455 8.027712 8.027712 0 0 0 0 0.933455V958.471468H81.06355v-4.853966V65.341841h550.364995a31.924157 31.924157 0 0 0 0-63.661622H85.917515A69.449043 69.449043 0 0 0 16.841854 71.129262v883.421695a69.075661 69.075661 0 0 0 68.88897 69.449043h810.052142a69.075661 69.075661 0 0 0 68.88897-69.075661V407.73309a32.110848 32.110848 0 0 0-31.550775-30.804011z" p-id="10206"></path><path d="M989.128454 94.839015l-49.84649-54.513764a63.848314 63.848314 0 0 0-44.245762-20.722699 62.914859 62.914859 0 0 0-46.299361 16.988879l-3.173747 2.800365L614.626357 250.165907l-186.690975 171.195624-6.534184 142.631906 142.258523 6.534184 201.439563-185.384139L983.901107 185.57083a64.408387 64.408387 0 0 0 5.227347-90.731815z m-270.141841 259.500456l-4.107202 3.73382c-118.73546 108.280766-134.417502 123.589426-156.073655 153.459982l-2.987056 4.293892-79.156973-3.547129 2.800364-58.060893v-7.65433l5.974111-5.600729 179.410028-163.727986 103.240109-94.278942 62.914859 68.702279zM951.043495 139.458159v3.547128l-79.156973 72.249408-62.728168-68.88897 84.010939-76.729991 6.534184 7.280948c50.779945 57.687511 50.779945 57.687511 50.406563 62.541477z" p-id="10207"></path></svg>