<svg viewBox="0 0 58 48" xmlns="http://www.w3.org/2000/svg" xmlns:xlink="http://www.w3.org/1999/xlink" width="58" height="48" fill="none">
	<rect id="arcticons--pass-by-skt 1" width="58" height="48" x="0" y="0" />
	<rect id="矩形 1" width="53" height="32" x="2.64582825" y="7.5" rx="4" stroke="rgb(52,91,150)" stroke-linecap="round" stroke-linejoin="round" stroke-width="1" />
	<path id="" d="M10.7344 28.5508Q10.7344 28.7422 10.5898 28.8711Q10.4492 29 10.2578 29L9.05469 29Q8.86328 29 8.71875 28.8711Q8.57422 28.7422 8.57422 28.5508Q8.57422 28.4258 8.59766 28.2344Q8.625 28.0391 8.625 27.8789L8.625 26.8555L8.625 25.1758Q8.625 22.4883 8.58984 21.5703Q8.55859 20.6484 8.45312 20.4414Q8.35156 20.2305 8.01562 20.1055Q7.77734 20.0078 7.47266 19.9453Q7.32812 19.9102 7.23047 19.8711Q7.13672 19.832 7.13672 19.7852Q7.13672 19.7344 7.23047 19.625Q7.55078 19.2227 7.85547 18.6797Q8.01562 18.375 8.13672 18.25Q8.25781 18.1211 8.46484 18.0664Q8.67188 18.0078 9.05469 18.0391Q9.19922 18.0547 9.58984 18.1055Q9.98438 18.1523 10.2383 18.2148Q10.4492 18.2812 10.582 18.4492Q10.7188 18.6172 10.7188 18.8242Q10.7188 19.3047 10.7031 19.543L10.6875 20.2812L10.6875 27.8789Q10.6875 28.0391 10.7109 28.2344Q10.7344 28.4258 10.7344 28.5508Z" fill="rgb(231,112,46)" fill-rule="nonzero" />
	<path id="" d="M11.2344 28.5508Q11.2344 28.9662 10.9227 29.2442Q10.6437 29.5 10.2578 29.5L9.05469 29.5Q8.6727 29.5 8.38594 29.2442Q8.07422 28.9662 8.07422 28.5508Q8.07422 28.3953 8.10136 28.1736Q8.125 28.0042 8.125 27.8789L8.125 26.8555L8.125 25.1758Q8.125 22.4978 8.09021 21.5894Q8.07524 21.148 8.04367 20.8873Q8.02962 20.7713 8.01345 20.6995Q8.00766 20.6738 8.00275 20.6587Q8.00193 20.6561 8.00187 20.656Q8.00396 20.6612 8.00761 20.6684L8.00505 20.6634L8.00262 20.6583Q8.00483 20.6629 8.00585 20.6641Q8.00051 20.6578 7.98846 20.6485Q7.93874 20.6103 7.84126 20.5741L7.83358 20.5712L7.82601 20.5681Q7.63103 20.4882 7.37218 20.4351L7.3633 20.4333L7.35448 20.4311Q7.17542 20.3876 7.04477 20.3353Q6.91036 20.2794 6.82229 20.1987Q6.63672 20.0285 6.63672 19.7852Q6.63672 19.5494 6.85084 19.2996L7.23047 19.625L6.83929 19.3136Q7.13448 18.9428 7.41943 18.435L7.85547 18.6797L7.41289 18.447Q7.60649 18.0787 7.7776 17.9021Q7.99153 17.6743 8.33715 17.583Q8.62258 17.5021 9.09537 17.5407L9.10191 17.5413L9.10843 17.542Q9.25832 17.5582 9.6543 17.6096Q10.074 17.6595 10.3578 17.7293L10.3732 17.7331L10.3884 17.7379Q10.746 17.8505 10.9742 18.1391Q11.2188 18.4394 11.2188 18.8242Q11.2188 19.3211 11.2021 19.5757L10.7031 19.543L11.203 19.5535L11.1874 20.2918L11.1875 27.8789Q11.1875 28.0092 11.2074 28.1748Q11.2344 28.3953 11.2344 28.5508ZM10.2344 28.5508Q10.2344 28.4563 10.2145 28.2939Q10.1875 28.069 10.1875 27.8789L10.1876 20.2707L10.2035 19.5213L10.2042 19.5103Q10.2188 19.2883 10.2188 18.8242Q10.2188 18.795 10.1898 18.7593Q10.1524 18.712 10.0881 18.6918L10.2383 18.2148L10.1188 18.7004Q9.89478 18.6452 9.52539 18.6013Q9.14012 18.5512 9.00095 18.5362L9.05469 18.0391L9.01401 18.5374Q8.72117 18.5135 8.59254 18.5498Q8.52409 18.5679 8.49584 18.5979Q8.42476 18.6713 8.29805 18.9123L8.29486 18.9184L8.29151 18.9244Q7.96708 19.5025 7.62164 19.9364L7.616 19.9435L7.6101 19.9504Q7.59807 19.9644 7.59094 19.974L7.59166 19.9723Q7.63672 19.8953 7.63672 19.7852Q7.63672 19.5886 7.49802 19.4615Q7.45683 19.4237 7.41616 19.4069Q7.48083 19.4327 7.59083 19.4595L7.47266 19.9453L7.57313 19.4555Q7.92366 19.5274 8.20524 19.6428L8.01562 20.1055L8.18999 19.6369Q8.71469 19.8321 8.90363 20.2245L8.45312 20.4414L8.89864 20.2144Q8.99158 20.3969 9.03641 20.767Q9.0732 21.0708 9.08948 21.5512Q9.125 22.4787 9.125 25.1758L9.125 26.8555L9.125 27.8789Q9.125 28.0739 9.09395 28.2951Q9.07422 28.4563 9.07422 28.5508Q9.07422 28.5182 9.05156 28.4979Q9.05386 28.5 9.05469 28.5L10.2578 28.5Q10.2547 28.5 10.257 28.4979Q10.2344 28.5182 10.2344 28.5508Z" fill="rgb(231,112,46)" fill-rule="nonzero" />
	<path id="" d="M18.4258 28.5508Q18.4258 28.7422 18.2812 28.8711Q18.1367 29 17.9453 29L16.7422 29Q16.5508 29 16.4062 28.8711Q16.2656 28.7422 16.2656 28.5508Q16.2656 28.4258 16.2891 28.2344Q16.3125 28.0391 16.3125 27.8789L16.3125 26.8555Q16.3125 22.5195 16.2617 21.1992Q16.2148 19.8789 16.1211 19.3203L16.0391 18.6484Q15.9766 17.9102 16.5195 17.9102Q16.5859 17.9102 16.7773 17.9453L17.9297 18.2148Q18.2305 18.2969 18.3594 18.6016Q19.1602 18.0703 20.4414 18.0234Q21.4492 18.0234 22.2383 18.5117Q23.0312 19 23.4688 19.793Q23.9102 20.5859 23.9102 21.4492Q23.9102 22.375 23.543 23.1992Q23.1758 24.0234 22.3594 24.543Q21.543 25.0625 20.2812 25.0625Q19.6875 25.0625 19.2461 24.9609Q18.8086 24.8555 18.375 24.6484L18.375 27.8789Q18.375 28.0391 18.3984 28.2344Q18.4258 28.4258 18.4258 28.5508ZM18.375 22.8398Q18.7109 23.0781 19.0781 23.2148Q19.4492 23.3516 19.9453 23.3516Q20.8242 23.3516 21.3438 22.8906Q21.8633 22.4258 21.8633 21.5742Q21.8633 20.8242 21.3672 20.3125Q20.8711 19.8008 19.9922 19.8008Q19.8789 19.8008 19.5938 19.832Q19.1914 19.8945 18.9023 20.0234Q18.6172 20.1523 18.375 20.375L18.375 22.8398ZM32.2962 29Q32.0384 29 31.8627 28.9141Q31.6869 28.8242 31.5931 28.4258Q31.5111 28.0898 31.1439 26.8242L30.9369 26.1055Q30.8861 25.9766 30.847 25.832Q30.808 25.6875 30.7611 25.543Q30.4564 25.5273 30.1673 25.5352Q29.8783 25.543 29.6087 25.543Q29.4486 25.5586 29.0306 25.5586L28.2337 25.5742Q27.6556 25.5938 27.2884 25.6562Q26.5697 27.3672 26.0306 28.1211Q25.4955 28.8711 24.9994 28.9688Q24.7767 29 24.6478 29Q24.1205 29 23.6791 28.6875Q23.2416 28.375 23.0462 27.6094Q22.9994 27.3984 23.0814 27.3594Q23.1595 27.3203 23.4173 27.3203Q23.9134 27.3203 24.1986 26.9844Q24.9369 25.9766 25.5853 24.3789Q26.2337 22.7773 26.9056 20.7617Q27.097 20.168 27.265 19.7031Q27.433 19.2383 27.5111 19.1289Q27.8002 18.6641 28.4252 18.6172Q28.4095 18.5508 28.4095 18.4258Q28.4095 18.0078 28.8705 18.0078Q28.9369 18.0078 29.1283 18.0391Q29.5619 18.1367 29.9603 18.1992Q30.2962 18.2656 30.4564 18.3711Q30.6166 18.4727 30.6791 18.6406Q30.7455 18.8086 30.8236 19.1758Q30.9837 19.8945 31.1283 20.3281L31.4798 21.4492Q31.8002 22.457 32.097 23.2656Q32.3939 24.0703 33.3353 26.4414Q33.6712 27.2734 33.7845 27.5312Q33.8978 27.7852 34.1517 28.2148Q34.2494 28.4258 34.2494 28.5859Q34.2494 28.8398 34.0384 28.9141Q33.8314 28.9844 33.4486 29L32.2962 29ZM29.4017 23.6094L30.183 23.6094Q29.4642 21.3672 29.1595 20.5195Q28.7455 21.8164 28.0892 23.6094L29.4017 23.6094ZM35.1604 21.0625Q35.1604 20.3125 35.5276 19.625Q35.8948 18.9375 36.7268 18.4805Q37.5588 18.0234 38.887 18.0234Q40.5354 18.0234 41.3362 18.6562Q42.137 19.2891 42.5354 20.168Q42.7776 20.6797 42.7776 21.0781Q42.7776 21.1758 42.7424 21.3047Q42.6799 21.4961 42.551 21.5859Q42.4221 21.6719 42.1838 21.7031Q42.0237 21.7539 41.801 21.7539Q41.3362 21.7539 40.887 21.5742Q40.7776 21.4961 40.7034 21.418Q40.6331 21.3359 40.6018 21.1758Q40.5667 20.9375 40.4924 20.7539Q40.4221 20.5664 40.344 20.4062Q40.2151 20.1836 39.8128 20.0156Q39.4143 19.8477 38.8713 19.8477Q38.2307 19.8477 37.6878 20.1523Q37.1448 20.457 37.1448 21.0781Q37.1448 21.3516 37.2893 21.7188Q37.4651 22.1523 38.0237 22.3867Q38.5823 22.6172 39.7346 22.9023Q40.3909 23.0625 40.5823 23.1133Q41.7034 23.4336 42.3284 24.2812Q42.9534 25.1289 42.9534 26.1367Q42.9534 26.8555 42.6174 27.5117Q42.1213 28.4062 41.1917 28.7422Q40.2659 29.0781 39.0628 29.0781Q38.6331 29.0781 38.4417 29.0625Q37.2737 29.0312 36.3753 28.6875Q35.4807 28.3438 35.2073 27.7344Q35.0471 27.4141 35.0471 27.0781Q35.0471 26.5508 35.3987 25.4961Q35.4338 25.4141 35.4651 25.4648Q36.0862 26.1836 36.7424 26.5352Q37.3987 26.8867 38.1838 27.0156Q38.6643 27.0977 39.0159 27.0977Q39.7854 27.0977 40.2698 26.832Q40.7581 26.5664 40.8245 26.168Q40.8401 26.1055 40.8401 25.9609Q40.8401 25.4492 40.4065 25.1445Q39.9768 24.8398 39.4065 24.7031Q38.8401 24.5664 37.801 24.3906Q36.3596 24.1211 35.6565 23.0977Q35.1604 22.375 35.1604 21.0625ZM44.2964 21.0625Q44.2964 20.3125 44.6636 19.625Q45.0308 18.9375 45.8628 18.4805Q46.6948 18.0234 48.023 18.0234Q49.6714 18.0234 50.4722 18.6562Q51.273 19.2891 51.6714 20.168Q51.9136 20.6797 51.9136 21.0781Q51.9136 21.1758 51.8784 21.3047Q51.8159 21.4961 51.687 21.5859Q51.5581 21.6719 51.3198 21.7031Q51.1597 21.7539 50.937 21.7539Q50.4722 21.7539 50.023 21.5742Q49.9136 21.4961 49.8394 21.418Q49.7691 21.3359 49.7378 21.1758Q49.7027 20.9375 49.6284 20.7539Q49.5581 20.5664 49.48 20.4062Q49.3511 20.1836 48.9488 20.0156Q48.5503 19.8477 48.0073 19.8477Q47.3667 19.8477 46.8238 20.1523Q46.2808 20.457 46.2808 21.0781Q46.2808 21.3516 46.4253 21.7188Q46.6011 22.1523 47.1597 22.3867Q47.7183 22.6172 48.8706 22.9023Q49.5269 23.0625 49.7183 23.1133Q50.8394 23.4336 51.4644 24.2812Q52.0894 25.1289 52.0894 26.1367Q52.0894 26.8555 51.7534 27.5117Q51.2573 28.4062 50.3277 28.7422Q49.4019 29.0781 48.1988 29.0781Q47.7691 29.0781 47.5777 29.0625Q46.4097 29.0312 45.5113 28.6875Q44.6167 28.3438 44.3433 27.7344Q44.1831 27.4141 44.1831 27.0781Q44.1831 26.5508 44.5347 25.4961Q44.5698 25.4141 44.6011 25.4648Q45.2222 26.1836 45.8784 26.5352Q46.5347 26.8867 47.3198 27.0156Q47.8003 27.0977 48.1519 27.0977Q48.9214 27.0977 49.4058 26.832Q49.8941 26.5664 49.9605 26.168Q49.9761 26.1055 49.9761 25.9609Q49.9761 25.4492 49.5425 25.1445Q49.1128 24.8398 48.5425 24.7031Q47.9761 24.5664 46.937 24.3906Q45.4956 24.1211 44.7925 23.0977Q44.2964 22.375 44.2964 21.0625Z" fill="rgb(21,83,134)" fill-rule="nonzero" />
</svg>
