<?xml version="1.0" standalone="no"?><!DOCTYPE svg PUBLIC "-//W3C//DTD SVG 1.1//EN" "http://www.w3.org/Graphics/SVG/1.1/DTD/svg11.dtd"><svg t="1754555345852" class="icon" viewBox="0 0 1024 1024" version="1.1" xmlns="http://www.w3.org/2000/svg" p-id="61027" xmlns:xlink="http://www.w3.org/1999/xlink" width="32" height="32"><path d="M929.005558 792.567724H803.757355V667.469535a26.552269 26.552269 0 0 0-53.092036 0V792.567724H625.479622a26.552269 26.552269 0 0 0 0 53.104538h125.135692v125.260703a26.552269 26.552269 0 0 0 53.092037 0V845.634759H928.880547a26.552269 26.552269 0 1 0 0.125011-53.092037z" p-id="61028" data-spm-anchor-id="a313x.search_index.0.i37.6c1c3a81dxIaKt" class="selected" fill="#0e932e"></path><path d="M638.830763 970.845458H161.20245c-22.151893 0-40.178433-15.263804-40.178434-34.090413V87.244955c0-18.826609 18.076545-34.152918 40.178434-34.152918h701.022401c22.151893 0 40.178433 15.263804 40.178434 34.102914v461.664449a26.552269 26.552269 0 1 0 53.092036 0V87.244955C955.507822 39.140845 913.591741 0 862.224851 0H161.20245C109.83556 0 67.93198 39.140845 67.93198 87.244955v849.51009c0 48.10411 41.903581 87.244955 93.27047 87.244955h477.540805a26.577271 26.577271 0 0 0 0-53.092037z" p-id="61029"></path><path d="M803.669848 310.989074a26.527267 26.527267 0 0 0-26.514766-26.514766H246.209713a26.552269 26.552269 0 0 0 0 53.092037h530.83286a26.56477 26.56477 0 0 0 26.627275-26.577271zM246.209713 553.797322a26.552269 26.552269 0 0 0 0 53.104537h353.930243a26.552269 26.552269 0 0 0 0-53.104537z" p-id="61030"></path></svg>