<?xml version="1.0" standalone="no"?><!DOCTYPE svg PUBLIC "-//W3C//DTD SVG 1.1//EN" "http://www.w3.org/Graphics/SVG/1.1/DTD/svg11.dtd"><svg t="1756434460683" class="icon" viewBox="0 0 1024 1024" version="1.1" xmlns="http://www.w3.org/2000/svg" p-id="4500" xmlns:xlink="http://www.w3.org/1999/xlink" width="32" height="32"><path d="M725.333333 640h42.666667v42.666667h-85.333333v-42.666667h-42.666667v-42.666667h85.333333v42.666667z m-128 213.333333h-42.666666v-42.666666h42.666666v-42.666667h-42.666666v-42.666667h85.333333v85.333334h42.666667v42.666666h-85.333334z m213.333334-85.333333v42.666667h-42.666667v42.666666h-42.666667v-42.666666h-42.666666v-85.333334h42.666666v42.666667h42.666667v-85.333333h42.666667v42.666666h42.666666v42.666667h-42.666666zM213.333333 213.333333h298.666667v298.666667H213.333333V213.333333z m42.666667 42.666667v213.333333h213.333333V256H256z m298.666667-42.666667h298.666666v298.666667h-298.666666V213.333333z m42.666666 42.666667v213.333333h213.333334V256h-213.333334z m-384 298.666667h298.666667v298.666666H213.333333v-298.666666z m42.666667 42.666666v213.333334h213.333333v-213.333334H256z m341.333333-42.666666h42.666667v42.666666h-42.666667v-42.666666z m-42.666666 42.666666h42.666666v42.666667h-42.666666v-42.666667z m170.666666-42.666666h42.666667v42.666666h-42.666667v-42.666666z m42.666667 42.666666h42.666667v42.666667h-42.666667v-42.666667z m42.666667-42.666666h42.666666v42.666666h-42.666666v-42.666666z m0 85.333333h42.666666v42.666667h-42.666666v-42.666667z m-213.333334 0h42.666667v42.666667h-42.666667v-42.666667z m42.666667 42.666667h42.666667v42.666666h-42.666667v-42.666666z m170.666667 128h42.666666v42.666666h-42.666666v-42.666666z" fill="#444444" p-id="4501"></path></svg>