<?xml version="1.0" standalone="no"?><!DOCTYPE svg PUBLIC "-//W3C//DTD SVG 1.1//EN" "http://www.w3.org/Graphics/SVG/1.1/DTD/svg11.dtd"><svg t="1754451095015" class="icon" viewBox="0 0 1024 1024" version="1.1" xmlns="http://www.w3.org/2000/svg" p-id="38061" xmlns:xlink="http://www.w3.org/1999/xlink" width="32" height="32"><path d="M566.613333 971.093333H189.44c-37.546667 0-68.266667-30.72-68.266667-68.266666V401.066667c0-37.546667 30.72-68.266667 68.266667-68.266667h377.173333c37.546667 0 68.266667 30.72 68.266667 68.266667v500.053333c0 39.253333-30.72 69.973333-68.266667 69.973333z" fill="#333333" opacity=".3" p-id="38062"></path><path d="M832.853333 989.866667H197.973333c-51.2 0-92.16-40.96-92.16-92.16V128c0-51.2 40.96-92.16 92.16-92.16h634.88c51.2 0 92.16 40.96 92.16 92.16V426.666667c0 13.653333-11.946667 25.6-25.6 25.6s-25.6-11.946667-25.6-25.6V128c0-22.186667-18.773333-40.96-40.96-40.96H197.973333c-22.186667 0-40.96 18.773333-40.96 40.96v769.706667c0 22.186667 18.773333 40.96 40.96 40.96h634.88c22.186667 0 40.96-18.773333 40.96-40.96v-69.973334c0-13.653333 11.946667-25.6 25.6-25.6s25.6 11.946667 25.6 25.6v69.973334c1.706667 51.2-40.96 92.16-92.16 92.16z" fill="#333333" p-id="38063"></path><path d="M749.226667 298.666667H283.306667c-13.653333 0-25.6-11.946667-25.6-25.6s11.946667-25.6 25.6-25.6h465.92c13.653333 0 25.6 11.946667 25.6 25.6s-11.946667 25.6-25.6 25.6zM558.08 476.16H283.306667c-13.653333 0-25.6-11.946667-25.6-25.6s11.946667-25.6 25.6-25.6h274.773333c13.653333 0 25.6 11.946667 25.6 25.6s-11.946667 25.6-25.6 25.6zM684.373333 795.306667c-6.826667 0-13.653333-3.413333-18.773333-6.826667L576.853333 699.733333c-10.24-10.24-10.24-25.6 0-35.84s25.6-10.24 35.84 0l71.68 71.68 199.68-199.68c10.24-10.24 25.6-10.24 35.84 0s10.24 25.6 0 35.84L703.146667 786.773333c-5.12 5.12-11.946667 8.533333-18.773334 8.533334z" fill="#0e932e" p-id="38064" data-spm-anchor-id="a313x.search_index.0.i26.6c1c3a81dxIaKt" class="selected"></path></svg>