<?xml version="1.0" standalone="no"?><!DOCTYPE svg PUBLIC "-//W3C//DTD SVG 1.1//EN" "http://www.w3.org/Graphics/SVG/1.1/DTD/svg11.dtd"><svg t="1754450218488" class="icon" viewBox="0 0 1024 1024" version="1.1" xmlns="http://www.w3.org/2000/svg" p-id="21739" xmlns:xlink="http://www.w3.org/1999/xlink" width="32" height="32"><path d="M802.79552 51.2c47.83104 0 87.1424 36.55168 91.60192 83.28192l0.41984 8.87808v307.8144c0 16.96768-13.73184 30.72-30.6688 30.72a30.6944 30.6944 0 0 1-30.1824-25.19552l-0.49664-5.52448V143.36a30.72 30.72 0 0 0-25.15968-30.22336L802.79552 112.64H189.30176a30.6944 30.6944 0 0 0-30.17728 25.19552L158.62784 143.36v737.28a30.72 30.72 0 0 0 25.15968 30.22336l5.51424 0.49664h369.52576a30.69952 30.69952 0 0 1 30.67392 30.72 30.72 30.72 0 0 1-25.15968 30.22336l-5.51424 0.49664H189.30176c-47.83104 0-87.1424-36.55168-91.5968-83.28192L97.28 880.64V143.36c0-47.90272 36.49536-87.2704 83.15904-91.74016L189.30176 51.2h613.49376z" fill="#1296db" p-id="21740"></path><path d="M734.01344 293.41696c17.02912 0 30.83776 13.22496 30.83776 29.53728 0 14.49984-10.91072 26.56256-25.2928 29.06112l-5.54496 0.47616H240.36352c-17.02912 0-30.83776-13.22496-30.83776-29.5424 0-14.49472 10.9056-26.55744 25.2928-29.056l5.54496-0.47616h493.64992zM426.63424 535.6288c17.1264 0 31.01696 13.22496 31.01696 29.5424 0 14.49984-10.97216 26.55744-25.4464 29.06112l-5.57056 0.47616H240.5376c-17.13152 0-31.01696-13.22496-31.01696-29.5424 0-14.49984 10.97216-26.55744 25.44128-29.06112l5.57568-0.47616h186.09152zM691.00544 506.09152c109.29664 0 197.90336 88.60672 197.90336 197.90848 0 109.30176-88.60672 197.90848-197.90336 197.90848-109.30176 0-197.90848-88.60672-197.90848-197.90848 0-109.30176 88.60672-197.90848 197.90848-197.90848z m0 65.9712c-72.86784 0-131.9424 59.06944-131.9424 131.93728 0 72.86784 59.07456 131.9424 131.9424 131.9424 72.86272 0 131.93728-59.07456 131.93728-131.9424s-59.07456-131.9424-131.9424-131.9424z" fill="#1296db" p-id="21741"></path><path d="M791.808 798.43328a29.8752 29.8752 0 0 1 38.8096-2.98496l4.15232 3.6608 81.01888 85.50912c11.67872 12.32896 11.38176 32.01024-0.6656 43.96544a29.8752 29.8752 0 0 1-38.8096 2.98496l-4.15744-3.66592-81.01376-85.504c-11.67872-12.32896-11.38176-32.01536 0.6656-43.96544z" fill="#1296db" p-id="21742"></path></svg>