<?xml version="1.0" standalone="no"?><!DOCTYPE svg PUBLIC "-//W3C//DTD SVG 1.1//EN" "http://www.w3.org/Graphics/SVG/1.1/DTD/svg11.dtd"><svg t="1754556035046" class="icon" viewBox="0 0 1024 1024" version="1.1" xmlns="http://www.w3.org/2000/svg" p-id="70353" xmlns:xlink="http://www.w3.org/1999/xlink" width="32" height="32"><path d="M120.32 855.68h-0.213333v19.541333c0 39.978667 13.098667 79.36 85.888 79.36h695.424V166.826667a31.402667 31.402667 0 0 1 9.088-23.594667 31.018667 31.018667 0 0 1 23.594666-9.088 31.658667 31.658667 0 0 1 24.106667 8.789333 31.573333 31.573333 0 0 1 9.386667 23.893334v768.213333c0 32.810667 0 53.205333-20.394667 72.789333-15.658667 15.445333-30.592 14.848-55.466667 13.824-6.997333-0.298667-14.805333-0.597333-23.637333-0.597333H206.208a134.698667 134.698667 0 0 1-152.192-145.706667v-86.016a31.573333 31.573333 0 0 1 0-4.010666V147.2c0-99.114667 40.106667-145.706667 125.994667-145.706667h542.506666a96.170667 96.170667 0 0 1 92.501334 98.986667v562.901333a88.661333 88.661333 0 0 1-51.968 84.650667c-10.666667 4.821333-22.186667 7.509333-33.962667 7.850667H199.68c-32.768 0-79.36 0-79.36 99.84zM180.010667 67.84c-40.106667 0-59.733333 0-59.733334 72.789333v569.429334a218.88 218.88 0 0 1 79.402667-13.098667h522.837333c13.098667 0 19.669333-13.824 19.669334-26.88V100.565333a29.866667 29.866667 0 0 0-26.197334-32.810666H180.053333z m59.690666 827.221333H735.573333a36.693333 36.693333 0 0 0 39.765334-32.725333 31.573333 31.573333 0 0 0-9.301334-24.106667 32.128 32.128 0 0 0-24.064-9.301333H239.616a31.573333 31.573333 0 0 0-24.106667 9.301333 32.128 32.128 0 0 0-9.301333 24.106667 31.573333 31.573333 0 0 0 9.386667 23.893333c6.4 6.229333 15.189333 9.386667 24.106666 8.832z" fill="#515151" p-id="70354"></path></svg>